<svg xmlns="http://www.w3.org/2000/svg" xml:space="preserve" fill-rule="evenodd" stroke-linejoin="round" stroke-miterlimit="2" clip-rule="evenodd" viewBox="0 0 2743 1600"><path d="M0 0h2743v1600H0z"/><path fill-rule="nonzero" d="M1733.9 830.26h7.05l-16.14-43.452c3.83 1.089 11.71 3.598 19.98 7.812l3.78 1.926-2.03-3.722c-14.45-26.521-20.66-49.931-22.56-58.22 2.16 1.819 5.73 5.387 10.62 12.159l3.21 4.438-.85-5.408c-1.68-10.78-10.49-27.799-15.48-36.807 3.78 2.723 9.35 6.227 16.23 9.056l1.94.793-.13-2.084c-.93-15.655-15.61-32.661-22.13-39.487 3.33.538 8.19 1.093 13.02.826l6.7-.373-6.34-2.179c-17.42-5.977-30.76-17.071-36.28-22.181 3.37.149 8.69-.223 15.46-2.658l3.78-1.363-3.85-1.13c-12.99-3.81-21-13.085-23.92-17.034 1.55-.174 3.66-.542 5.72-1.314l3.24-1.217-3.23-1.236c-10.92-4.177-17.89-12.123-20.94-16.244l6.98 1.516-3.69-3.312c-4.56-4.09-8.23-8.16-11.18-12.121 12.04-17.983 11.68-36.394 9.21-48.749-2.47-12.339-7.33-21.006-8.36-22.745l-.09-.721-12.19-3.455 13.93-11.194-2.15-.808c-4.89-1.832-10.24-3.976-12.46-5.048 1.69-2.208 5.73-7.97 15.87-23.326l2.54-3.845-4.19 1.931c-.04.019-3.51 1.588-7.43.971 11.4-6.27 17.92-21.033 18.21-21.713l1.58-3.625-3.43 1.964c-.14.079-12.26 6.965-22.05 7.893 5.98-6.046 12.65-18.485 12.98-19.1l1.62-3.051-7.73 2.873c2.07-3.471 5.25-9.219 7.34-15.045l1.41-3.927-3.4 2.416c-4.74 3.36-13.09 5.354-17.82 6.267l18.8-22.139-16.64 1.074c23.93-14.182 42.8-30.342 54.75-46.949 13.61-18.9 18.48-38.046 14.5-56.905-3.93-18.557-14.09-31.241-31.08-38.777-14.72-6.528-34.39-9.249-61.91-8.561-19.86.496-44.66 4.259-71.17 10.39.8-4.711 2.4-16.834-.4-25.236-1.8-5.421-6.74-8.286-11.52-11.057-4.83-2.798-9.38-5.44-10.67-10.461-1.74-6.771.13-14.432 1.95-21.843.97-3.954 1.97-8.043 2.4-11.946 1.28-11.547-2.55-16.222-17.83-21.75-13.36-4.834-17.05-12.648-16.42-34.843.25-9.058-2.01-15.852-6.72-20.191-5.62-5.175-14.7-6.986-27.76-5.534-18.45 2.049-44.61 5.66-83.52 15.464-3.4.858-7.12 1.774-11.12 2.76-41.5 10.223-110.96 27.334-186.38 66.18-35.52 18.286-65.08 41.399-87.87 68.691-21.77 26.06-28.45 45.387-29.14 47.506-3.35 10.26-3.25 19.437.26 25.178 2.24 3.656 5.72 5.884 10.35 6.617 9.07 1.44 22.47 1.775 30.47 1.974 3.08.077 5.5.138 6.21.231.99.131.67 3.615.44 6.161-.06.71-.13 1.436-.18 2.165-.12 1.577.24 2.847 1.06 3.773 1.51 1.694 4.14 1.807 6.67 1.918.64.028 1.29.056 1.91.11 1.19.101 1.35.615 1.41.784.38 1.177-.77 3.718-3.71 6.297-5.54 4.844-3.63 18.344-1.31 22.987 1.47 2.93.9 4.796-.63 9.782-.36 1.161-.76 2.47-1.19 3.97-1.94 6.81-4.57 17.961-5.36 21.31-14.46.63-27.43.132-39.39-.331-19.21-.741-37.36-1.439-56.81 2.637-17.85 3.741-30.981 13.339-36.97 27.022-6.664 15.233-4.197 33.871 6.946 52.485 11.078 18.504 34.364 30.129 51.954 36.621 15.58 5.752 29.57 8.606 34.15 9.457a31 31 0 0 0-1.07 3.657c-2.75 12.239-7.56 41.844 5.28 58.122a209 209 0 0 0-5.66 2.304l-2.16.914 5.33 3.808-14.91 11.533h7.28l-14.52 18.191 7.45-1.344-36.98 28 7.79-.177c-19.14 21.887-18.09 45.062-18.03 46.07l.2 3.656 2.16-2.953c.17-.227 15.47-21.04 27.57-32.737-8.33 32.829-29.27 51.462-29.49 51.653l-7.27 6.365 34.93-16.832-21.33 40.88 10.16-7.897c-3.17 9.294-13.02 16.206-13.13 16.284l-2.73 1.891 3.28.484c.73.108 16.58 2.381 26.53-1.498-3.41 16.209-14.86 29.526-14.98 29.667l-2.76 3.177 10.73-2.75-15.62 44.211 2.37 1.098 5.05-8.662-1.35 13.389 11.01-10.134-4.86 21.354 2.49.798c.52-1.248 2.16-4.24 4.16-5.532-4.63 15.082-.88 33.418-.71 34.231l1.35 6.411 1.22-6.434c2.74-14.347 7.09-30.308 9.39-32.071.05.073.12.178.2.328 3.35 6.477-.73 27.829-2.58 35.509l-1.01 4.188 30.97-28.418.6 30.652 1.86-.927c2.27-1.134 6.23-2.541 7.53-1.965.12.056.15.103.18.177.29 2.221-6.94 17.596-14.09 31.177l-3.78 7.184 27.57-26.505 1.88 29.984 8.59-9.818.85 18.845 1.65-.55c.17-.055 3.5-1.202 7.19-5.027-1.19 10.846-11.09 27.619-11.2 27.806l-2.02 3.402 3.65-1.521c.06-.026 5.27-2.195 10.19-4.337-5.37 16.342-4.63 38.897-4.6 39.907l.28 7.82 6.36-20.84 2.6 12.22 14.34-17.59c-2.17 8.89-6.03 26.23-6.52 38.97l-.07 1.73 1.69-.41c10.41-2.5 23.69-15.62 28.61-20.78 1.06 8.17 2.38 18.49 2.41 19.28 0 .61.36 1.12.92 1.32.85.29 1.28.43 5.39-4.73.65 2.93 1.56 9.03 1.56 20.07v1.56l1.53-.26c13.91-2.41 25.16-13.37 29.59-18.27l3.54 33.04 12.39-18.95 7.97 21.63 20.26-23.48c1.55 4.82 5.74 15.83 13.16 21.95l1.92 1.59.22-2.48c.88-9.98 8.2-15.7 10.97-17.52l14.94 25.37 9.39-13.28 9.21 18.64 9.52-27.14 20.49 24.82 11.32-17.43c10.22 19.63 11.2 19.24 12.42 18.75.81-.32 2.11-1.94 10.32-13.42 1.82-2.56 3.83-5.36 4.95-6.86 2.05 2.1 7.33 7.88 10.51 21.67l.5 2.13 1.65-1.43c5.98-5.22 8.46-14.28 9.47-20.32l5.61 17.22 7.25-14.5 4.25 11.58 6.39-14.81 16.05 13.65 1.62-15.46 18.11 15.93 19.21-14.53c3.22 1.51 17.09 8.72 23.32 23.09l1 2.28 1.32-2.11c3.73-5.97 2.13-15.31.96-20.03l7.43 3.71 5.53-20.98c4.12 5.83 15.64 20.28 31.78 25.58l2.6.85-.96-2.56c-3.9-10.4-4.05-17.62-3.85-20.78 2.72 1.51 8.31 4.88 13.3 9.54l2.49 2.33-.29-3.4c-.92-10.9-6.41-24.66-9.37-31.41l22.57 14.49 2.97-28 8 10.53 5.4-22.47c2.51 5.21 8.57 14.74 21.94 23.8l4.41 2.99-2.52-4.69c-6.07-11.34-6.61-24.11-6.56-29.16 3.85 2.6 12.63 9.4 16.85 19.78l.99 2.43 1.35-2.25c4.48-7.48 3.62-23.28 2.74-31.842l11.98 18.642.84-2.67c.23-.75 5.5-17.966 1.59-41.092 11.03 6.737 20.23 28.619 20.33 28.854l2.14 5.161 2.02-30.038 8.23 9.437-2.84-19.921 15.24 19.998-8.03-39.276c5.42 2.588 18.41 8.472 24.17 8.222l2.24-.1-1.18-1.903c-9.28-14.925-11.39-27.152-11.86-32.297l14.15 10.207-9.99-34.145 28.56 21.425-12.4-24.121 10.46 3.484-10.65-35.551 22.22 14.56-4.93-18.794 11.3 5.32z"/><path fill="#d61e06" fill-rule="nonzero" d="M1661.2 594.95c-6.85-9.999-9.22-19.161-9.84-25.94-.98-10.774 2.11-18.045 2.14-18.115l.92-2.114-2.28.287c-.14.016-2.81.371-6.32 2.252 2.25-14.071 12.49-21.298 16.07-23.428 3.36 6.141 18.58 37.315-.69 67.058"/><path fill="#dd8fc8" fill-rule="nonzero" d="M1122.7 403.76c.43-1.482.82-2.774 1.18-3.921 1.6-5.231 2.41-7.857.47-11.726-1.93-3.86-3.75-15.958.68-19.839 3.58-3.126 5.3-6.61 4.48-9.088-.48-1.482-1.82-2.421-3.67-2.582a55 55 0 0 0-2.02-.116c-1.99-.086-4.05-.176-4.82-1.04-.34-.383-.48-.983-.41-1.839.05-.713.11-1.424.18-2.116.38-4.201.78-8.544-2.72-9.002-.84-.11-3.08-.167-6.48-.251-7.94-.199-21.23-.533-30.13-1.943-3.84-.608-6.7-2.424-8.52-5.396-3.11-5.085-3.11-13.466-.01-22.997.68-2.067 7.21-20.953 28.66-46.635 22.57-27.024 51.86-49.917 87.06-68.043 75.16-38.702 144.43-55.767 185.81-65.964 4.01-.987 7.73-1.903 11.14-2.763 38.75-9.766 64.79-13.36 83.16-15.401 12.26-1.362 20.67.227 25.69 4.857 4.19 3.855 6.11 9.804 5.88 18.187-.59 20.67 1.98 31.535 18.15 37.383 14.25 5.154 17.26 8.704 16.12 18.992-.42 3.735-1.36 7.562-2.35 11.613-1.89 7.724-3.85 15.71-1.94 23.119 1.56 6.086 6.81 9.131 11.89 12.076 4.56 2.643 8.86 5.139 10.36 9.618 2.83 8.498.71 21.739.1 25.058-41.84 9.897-87.62 25.574-124.75 43.576-33.51-1.516-105.73 12.841-179.49 43.31-69.58 28.743-99.49 57.338-102.87 60.71-.4.059-.8.119-1.21.178a270 270 0 0 1-24.77 2.431c.94-3.998 3.34-14.125 5.15-20.449"/><path fill="#dd8fc8" fill-rule="nonzero" d="M1420.8 320.09c-23.45 11.51-39.47 20.239-53.7 27.997-22.27 12.14-39.87 21.729-74.08 35.339-53.19 21.162-91.26 29.529-144.88 37.502 9-8.14 39.21-32.778 99.34-57.618 69.89-28.87 138.28-43.203 173.32-43.22"/><path fill="#dd8fc8" fill-rule="nonzero" d="M990.89 504.8c-10.695-17.865-13.108-35.653-6.794-50.085 5.635-12.886 18.105-21.943 35.105-25.506 19.14-4.011 37.12-3.317 56.17-2.583 19.18.74 40.92 1.58 67.37-2.265 55.63-8.088 96.22-16.62 151.23-38.507 34.35-13.668 52.01-23.289 74.36-35.471 15.17-8.269 32.36-17.642 58.45-30.312 61.31-29.781 146.4-53.211 197.91-54.5 56.33-1.406 83.35 12.126 90.36 45.258 7.52 35.571-19.02 73.422-72.82 103.84l-.39.219-.2.475c1.34-7.901 2.36-17.948 1.07-26.68l-.49-9.868-14.61 8.942c1.22-4.862 2.94-14.237.79-22.287l-.61-2.254-1.61 1.687c-8.56 8.951-20.63 15.89-25.31 15.89h-.01c-.57 0-.99-.109-1.18-.302-1.51-1.592 1.32-14.006 4.93-24.6l1.03-3.031-32.98 16.554 22.38-22.734-47.63 16.975 16.2-27.052-32.11 9.385 22.37-14.498-82.43 10.927 6.54-5.053-3 .291c16.26-5.704 33.11-10.844 49.83-14.863 40.49-9.731 93.73-15.906 117.4 9.951l1.94-1.772c-24.54-26.801-78.77-20.627-119.95-10.729-52.25 12.56-105.78 35.962-138.44 53.673-68.96 37.393-118 59.71-179.55 70.542-44.95 7.913-69.6 7.6-93.43 7.298-9.05-.115-17.6-.225-27.22.091-30.33.99-43.91 11.124-47.58 14.454-.58.53-.58 1.446.01 1.97.5.445 1.25.438 1.75-.007 3.3-2.931 16.56-12.836 45.91-13.795 5.18-.17 10.05-.214 14.87-.202l.17 12.152a239 239 0 0 0-3.85-3.17l-1.72-1.399-.39 2.189c-2.16 12.116 1.51 25.738 3.96 32.942l-18.88-16.946 2.75 5.858c5.73 12.189 11.48 25.982 11.33 28.29-.25.399-.36.432-.38.433-1.78.205-9.69-7.869-12.3-10.523l-2.5-2.558.26 3.573c.83 11.198 4.52 20.428 8.76 27.551-2.21 2.217-8.4 8.88-12 17.08-8.3-1.512-65.74-13.031-84.843-44.939"/><path fill="#d61e06" fill-rule="nonzero" d="M1076.2 556.46c2.14-9.573 9.95-18.411 12.92-21.501 3.92 6.021 8.06 10.305 10.71 12.738a35 35 0 0 1-7.21-1.126l-4.74-1.276 3.47 3.472c11.7 11.697 16.22 23.022 17.97 29.843-1.32-1.585-3.1-3.454-5.52-5.594l-2.84-2.519.68 3.736c3.7 20.235-14.01 28.551-14.76 28.895l-2.6 1.176 7.85 3.663a16.9 16.9 0 0 1-6.03 3.44c-1.42.45-3.02 1.019-4.59 1.606-12.8-15.206-8.01-44.522-5.31-56.553"/><path fill="#d61e06" fill-rule="nonzero" d="m1735.2 862.56-22.53-14.76 11.27 37.599-11.77-3.923 10.13 19.708-25.76-19.317 10.07 34.377-12.18-8.778-.07 2.468c-.02.617-.31 14.819 11.05 34.171-6.5-1.153-18.33-6.617-22.88-8.912l-2.42-1.219 6.8 33.299-14.39-18.891 3.01 21.129-6.57-7.54-1.72 25.62c-3.8-7.798-12.15-22.765-21.85-26.672l-2.25-.901.47 2.372c3.59 18.301 1.06 33.483-.32 39.565l-15.31-23.837.96 6.136c.04.242 3.44 22.501-.53 33.391-6.28-12.6-18.14-19.318-18.68-19.616l-1.78-.991-.17 2.032c-.05.642-1.08 14.395 4.59 28.155-14.96-11.6-18.34-23.18-18.37-23.31l-1.35-4.908-6.26 26.028-8.66-11.38-3.21 30.34-26.67-17.11 2.03 4.19c.09.19 8.36 17.35 10.57 31.2-6.38-5.3-12.68-8.42-12.98-8.56l-1.5-.74-.35 1.63c-.08.34-1.66 8.02 2.81 21.4-17.62-7.14-29.31-25.78-29.43-25.97l-1.61-2.6-6.23 23.62-10.04-5.03 1.01 3.02c.05.12 3.65 11.02 1.24 18.34-7.96-15.36-23.49-21.93-24.19-22.21l-.69-.29-18.73 14.16-20.31-17.87-1.63 15.56-14.96-12.73-5.19 12.04-4.08-11.11-7.11 14.21-7.75-23.82-.29 7.3c-.01.16-.69 14.97-7.7 22.95-3.54-13.45-9.02-19.01-10.89-20.9-.11-.11-.23-.23-.32-.33l-.01-.55-.91-.3c-1.07-.34-1.07-.34-7.47 8.61-2.87 4.02-6.99 9.77-8.71 11.89-1.86-2.59-6.55-11.09-10.6-18.91l-1.03-2-11.83 18.22-21.18-25.65-8.99 25.64-8.39-17-9.6 13.57-14.18-24.1-1.11.58c-.46.24-10.77 5.73-13.08 17.72-7.59-7.73-11.16-21.15-11.2-21.29l-.63-2.42-20.55 23.82-8.23-22.35-11.23 17.17-3.42-31.97-1.99 2.54c-.13.16-12.53 15.76-28.46 19.35-.13-16.62-2.32-21.65-2.42-21.86l-.9-1.98-1.33 1.72c-1.16 1.49-2.48 3.13-3.5 4.32-.6-5.09-1.99-15.79-2.5-19.66l-.37-2.84-1.91 2.14c-.16.18-15.67 17.43-27.48 21.54 1.07-17.42 7.74-42.061 7.81-42.318l1.63-5.966-18.54 22.734-3.57-16.794-4.42 14.474c.3-8.95 1.44-22.81 5.41-32.828l1.18-2.987-2.93 1.304a601 601 0 0 1-9.41 4.061c3.54-6.533 10.68-20.971 9.7-29.555l-.38-3.318-1.98 2.688c-2.47 3.355-5.05 5.213-6.67 6.144l-.99-21.65-8.69 9.937-1.83-29.279-20.09 19.303c5.02-9.871 11.41-23.242 10.65-25.998a2.88 2.88 0 0 0-1.64-1.917c-2.09-.93-5.66.237-7.92 1.169l-.63-32.395-29.01 26.614c1.72-8.233 4.96-26.472 1.45-33.239-.93-1.795-2.14-1.908-2.78-1.815-1.87.274-4.15 2.623-8.04 17.824-.81 3.19-1.55 6.383-2.14 9.097-.74-7.266-1.04-18.611 2.45-27.819l.64-1.68-1.8-.094c-1.82-.095-3.39.736-4.69 1.889l5.21-22.916-12.13 11.163 1.88-18.557-4.16 7.132 12.63-35.767-7.64 1.96c3.97-5.331 11.52-16.932 13.6-30.356l.41-2.679-2.35 1.336c-6.55 3.71-18.44 3.18-24.1 2.665 4-3.367 11.28-10.621 12.46-19.563l.42-3.168-6.1 4.745 19.41-37.21-26.71 12.869c7.4-8.357 20.63-26.215 26.08-51.829l.81-3.824-2.95 2.56c-9.98 8.642-23.14 25.504-28.57 32.685.61-7.87 3.74-25.929 19.27-42.368l2.16-2.283-5.88.132 39.26-29.719-11.37 2.051 13.56-16.994h-5.06l11.64-8.992-4.38-3.125c2.63-1.076 7.12-2.859 10.44-3.917 5.41-1.721 8.38-5.371 8.5-5.525l1.04-1.302-6.14-2.866c4.85-3.031 15.47-11.478 14.4-26.768 5.09 5.087 5.74 7.88 5.75 7.891l2.6-.245c-.01-.718-.41-16.954-16.91-35.126 4.17.613 7.22.352 7.39.335l3.39-.307-2.73-2.048c-.19-.147-18.79-14.354-22.24-39.363 7.6 7.555 9.98 8.86 11.85 8.641 1.25-.149 1.94-1.047 2.4-1.814.48-.805 1.21-2.021-5.07-16.758a460 460 0 0 0-3.57-8.118l17.8 15.972-2.37-5.487c-.08-.189-7.85-18.432-6.03-34.27 3.23 2.653 4.12 3.532 4.13 3.54l2.28 2.285-.25-18.296c3.18.021 6.36.06 9.61.101 23.95.306 48.72.618 93.92-7.336 61.9-10.898 111.14-33.297 180.35-70.825 19.9-10.789 47.58-23.696 77.97-34.955l4.19-.409-7.04 5.441 80.55-10.679-27.64 17.911 42.89-12.531-16.52 27.582 43.74-15.59-25.47 25.879 41.48-20.822c-.71 2.246-1.68 5.496-2.54 8.846-2.89 11.395-1.96 14.219-.83 15.406.7.74 1.74 1.116 3.08 1.116 5.6 0 17.07-6.815 25.49-14.971 1.69 10.016-2.13 21.64-2.17 21.766l-1.13 3.409 16.76-10.26.27 5.263c-4.06 13.037-21.06 21.134-21.23 21.216l1.11 2.375c.66-.307 14.42-6.847 20.63-18.149.77 15.803-4.48 34.139-4.54 34.344l2.47.881 5.23-12.222 15.25-.983-19.35 22.785 3.39-.462c.53-.072 11.42-1.591 19.13-5.358-3.24 7.496-7.69 14.211-7.74 14.288l-2.24 3.365 8.55-3.175c-2.94 5.084-8.98 14.909-13.29 17.466l-3.52 2.082 4.07.353c7.84.679 18.08-3.682 23.48-6.338-2.93 5.28-9.26 14.863-18.04 18.155l-2.82 1.057 2.69 1.345c3.27 1.634 6.64 1.544 9.09 1.096-5.67 8.542-13.25 19.801-14.37 20.982-.38.272-.6.715-.57 1.183.05.918.08 1.541 12.63 6.308l-14.32 11.495 13.41 3.798c-4.97 3.311-15.04 11.845-16.31 27.239l-.22 2.747 2.27-1.556a22 22 0 0 1 5.32-2.682c-.93 3.119-2.2 9.086-1.52 16.848.85 9.74 5.1 24.129 20.06 38.949l-3.58-.777 1.45 2.555c.3.522 6.92 11.943 20.54 18.504-2.05.36-3.63.37-3.66.37l-2.31.003 1.19 1.981c.33.558 7.77 12.787 22.85 18.719-8.77 2.346-14.13.893-14.19.877l-4.57-1.327 3.25 3.481c.14.157 13.35 14.151 33.2 22.872-5.15-.447-9.19-1.415-9.24-1.428l-4.83-1.17 3.61 3.4c.23.209 21.52 20.45 24.14 38.629-11.42-5.112-18.79-11.992-18.86-12.066l-6.85-6.456 4.82 8.082c.14.239 12.52 21.078 17.13 35.934-6.69-8.243-10.25-9.744-10.42-9.813l-2.2-.878.42 2.329c.05.275 4.97 26.826 21.61 58.634-10.28-4.754-18.92-6.807-19.33-6.901l-2.38-.557 16.56 44.583h-7.46l10.56 21.851-9.68-4.556z"/><path fill-rule="nonzero" d="m1632.6 645.88 5.26.915-13.66-28.676 8.62 2.869-1.64-2.949c-.22-.385-21.46-38.852-25.78-73.599l-.51-4.156-4.15 7.907-10.72-24.45-.53 15.587-19.71-27.388 6.38 18.238-15.84-12.339-2.1 7.256-5.58-12.231-4.72 7.803c-2.23-3.96-7.57-12.762-14.24-18.712l-2.72-2.426.55 3.602c.97 6.354 1.53 10.555 1.86 13.218l-19.25-21.719-.9 12.964-18.79-25.692.98 16.93-14.21-14.442.22 11.871-15.31-19.548 1.24 15.879-20.86-18.725 3.74 18.941-11.34-13.025-1.08 15.087c-9.46-16.237-10.69-16.402-11.38-16.492-.44-.06-.88.087-1.2.401-.31.317-1.13 1.13-4.93 23.772l-9.91-20.733-4.5 16.574-5.26-22.791-7.06 15.818-8.47-13.671-2.99 14.7-4.46-15.331-9.24 20.93-5.08-18.254-11.62 19.569-4.35-19.058-6.75 21.021-3.51-12.939-6.6 11.269-.29-25.862-18.94 23.585-1.66-16.311-22.68 19.746 2.74-20.208-27.31 25.083 12.84-24.257-44.7 30.949 8.86-19.842-18.33 19.034 2.7-16.561-14.48 20.397v-5.343l-5.21 6.189-1.28-15.086-12.59 18.881-2.59-15.555-12.84 25.981-2.04-8.767-11.77 18.836-.83-19.851-10.29 42.198-3.76-12.964-4.82 35.546-5.11-21.724-3.36 33.43-18.01 18.386 10.09-2.959-13.67 18.899 6.54-1.798-20.06 32.297 10.9-6.51-14.94 27.846 8.74-5.938-12.79 28.195 10.42-11.46-10.22 28.333 4.28-3.62-11.07 34.735 10.7-14.542.73 16.18 2.43-3.998-1.84 17.204 3.78-6.041-2.32 40.183 7.55-12.432.48 27.604 3.44-7.122 1.3 22.522 5.81-7.507c.82 5.074 2.82 15.495 6.59 24.577l1.87 4.5.64-4.831c.17-1.276.34-2.62.49-3.811l10.71 16.672v-5.263c4.63 7.085 15.52 22.614 29.67 35.56l2.63 2.404-.44-3.535c-.21-1.678-.22-3.633-.17-5.22 5.36 5.669 20.33 20.334 39.3 28.954l2.38 1.083-.56-2.557a60 60 0 0 1-.64-3.459l8.7 10.03v-8.646l22.91 20.066-1.03-6.7 13.1 8.421-1.2-6.134 29.34 12.615v-7.796l24.07 13.273v-8.665l18.02 8.256 2.5-7.952 6.68 5.192.73-1.361c1.21-2.228 2.67-4.739 3.66-6.231.88 1.762 2.19 4.016 2.7 4.883l1.03 1.754 4.33-6.146 1.52 5.784 10.29-8.864 5.4 12.066 2.87-10.411 1.34 3.36 3.32-5.113 1.29 6.572 8.46-5.372 4.55 8.309 11.98-9.38-1.5 4.516 6.55-2.506 3.59 10.916 25.24-12.092v6.727l1.84-.822c7.28-3.24 17.73-7.869 21.57-9.525a48 48 0 0 1-.25 2.923l-.32 2.623 13.63-7.962-.77 4.854 1.73-.216c.51-.064 11.43-1.512 20.51-9.045-.81 4.118-.84 5.552-.84 5.737v1.76l1.68-.504c.73-.217 16.7-5.053 29.15-14.655-.5 2.138-.71 3.385-.72 3.461l-.36 2.165 2.08-.709c.78-.266 17.98-6.239 28.84-18.743.01 2.141.13 3.895.14 4.011l.18 2.595 23.74-20.216v8.197l2.12-1.673c1.12-.885 25.51-20.233 35.08-38.998-.01 2.781-.3 6.262-1.34 9.476l-1.01 3.144 2.89-1.591c7.48-4.111 11.44-14.834 12.92-19.808l2.43 3.088 6.27-18.581 3.6 4.373 2.16-13.951 4.07 3.584 2.33-23.727 3.23 6.9.69-4.157c.04-.222 3.49-21.08 3.53-35.857 1.74 1.35 2.76 1.994 2.82 2.03l1.96 1.226.04-2.312c.02-.85.33-18.282-1.7-29.489.88.853 1.36 1.26 1.39 1.291l2.89 2.473-4.88-24.376 4.71 2.118-6.94-30.513 7.94 3.705z"/><path fill="#c2cb48" fill-rule="nonzero" d="m1650.5 734.45-4.05-4.367 1.84 5.666c2.53 7.76 2.75 24.531 2.74 30.866a51 51 0 0 1-2.72-2.184l-2.25-1.902.09 2.946c.33 10.783-1.71 26.472-2.8 33.928l-3.68-7.83-2.76 28.131-3.81-3.365-2 12.908-2.88-3.502-6.23 18.457-2.75-3.503-.61 2.696c-.03.138-2.89 12.514-9.55 18.647 1.14-6.264.29-12.167.25-12.462l-.78-5.202-1.76 4.96c-5.79 16.384-27.44 35.424-34.33 41.19v-8.402l-24.04 20.469c-.04-1.501-.04-3.396.11-5.01l.44-4.828-2.81 3.943c-8.01 11.235-22.42 17.912-27.89 20.135a94 94 0 0 1 1.21-4.821l1.18-4.289-3.32 2.958c-9.99 8.887-24.3 14.324-29.4 16.076.21-1.429.62-3.772 1.46-7.398l1.08-4.729-3.32 3.541c-6.89 7.353-16.42 10.029-20.3 10.849l1.07-6.769-13.91 8.126c.17-2.8-.25-3.166-.59-3.469a1.42 1.42 0 0 0-1.28-.314c-.57.137-11.62 5.03-21.52 9.437v-6.854l-26.3 12.6-3.52-10.691-3.94 1.508 2.5-7.523-16.41 12.843-4.4-8.049-7.59 4.815-1.79-9.169-4.1 6.303-2.36-5.896-2.99 10.888-3.86-8.619-9.77 8.421-1.88-7.174-5.23 7.418c-1.11-1.968-2.11-3.87-2.23-4.369-.15-.591-.62-1.023-1.21-1.095-.84-.106-1.57-.198-5.72 7.306l-7.22-5.614-2.74 8.717-19.03-8.724v8.31l-24.08-13.268v8.251l-30.23-13 .97 4.978-12.83-8.251.82 5.339-21.84-19.132v7.405l-9.11-10.495v3.51c0 .099.01 2.006.6 5.423-22.02-10.768-38.02-29.304-38.19-29.502l-2.01-2.347-.29 3.075c-.01.146-.25 2.663-.21 5.477-17.31-16.613-29.1-36.369-29.23-36.578l-2.44-4.119v5.646l-9.82-15.294-.43 3.633c0 .019-.1.865-.25 2.112-3.59-10.751-4.99-21.894-5.01-22.025l-.39-3.162-5.36 6.926-1.48-25.632-3.05 6.31-.44-25.645-6.8 11.183 2.31-39.911-3.17 5.069 1.87-17.519-4.05 6.651-.67-14.994-5.65 7.68 8.99-28.235-3.74 3.175 11.38-31.55-8.1 8.915 9.75-21.501-7.62 5.176 14.38-26.788-9.78 5.838 17.91-28.82-5.81 1.6 13.79-19.067-7.8 2.29 11.61-11.866 1.89-18.732 4.77 20.253 5.01-36.972.04-.321.13.425 2.91 10.069 1.72-7.083 3.75-15.329 2.76-11.32.41 9.779 12.92-20.674 2.27 9.753 12.48-25.252 2.34 14.076 12.11-18.162 1.19 13.925 4.66-5.537v6.383l12.68-17.873-2.23 13.689 13.77-14.299-6.58 14.724 43.58-30.164-8.66 16.358-6.28 11.858 18.42-16.914 14.77-13.565-1.36 9.976-1.35 9.944 24.12-20.996.94 9.236.85 8.401 6.35-7.902 12.01-14.961.2 16.979.12 11.021 5.53-9.439 2.69-4.605 1.68 6.185 2.53 9.275 2.28-7.11 4.24-13.229 3.68 16.129 11.83-19.941 5.41 19.403 9.29-21.048 5.41 18.62 3.8-18.633 7.59 12.252 5.9-13.19 5.85 25.357 5.38-19.847 6.1 12.749 4.36 9.125.68-4.119c.5-3.071 1.03-6.239 1.57-9.269 1.17-6.703 2.31-12.764 2.99-15.682 1.56 2.157 4.33 6.599 7.26 11.511 1.21 2.04 2.46 4.165 3.65 6.237l2.14 3.733.83-11.537.41-5.812 4.45 5.117 9.21 10.565-2.18-11.025-1.95-9.851 11.25 10.1 8.63 7.753-.54-6.893-.53-6.861 6.09 7.779 8.69 11.104-.17-9.13-.07-4.001 14.49 14.724-.33-5.627-.54-9.385 10.91 14.914 6.88 9.393.3-4.42.65-9.465 20.36 22.962-.23-3.804c-.01-.137-.21-3.181-1.75-13.603 6.9 7.373 11.95 17.178 12 17.289l1.07 2.099 4.56-7.53 6.46 14.161 2.99-10.336 19.82 15.438-3.34-9.543 12.69 17.624.93 1.286.05-1.803.34-9.924 3.48 7.937 4.79 10.934 2.85-5.431c.39 2.452.86 4.912 1.38 7.371 5.58 26.112 18.18 51.744 22.58 60.219l-8.14-2.716 14.12 29.659-5.39-.937 23.31 46.411-5.95-2.781 6.96 30.603-4.55-2.047 4.3 21.508c-.47-.486-.99-1.03-1.56-1.641"/><path fill-rule="nonzero" d="M1130.2 336.94c-.34 0-.69-.136-.95-.407-.5-.524-.48-1.355.05-1.854.18-.178 19.04-18.018 56.68-42.19 17.63-11.322 33.73-20.185 46.67-27.304 14.43-7.939 24.86-13.675 27.33-17.383.4-.59.51-1.028.34-1.302-.46-.753-4.52-4.295-38.9-.065a1.304 1.304 0 0 1-1.46-1.141 1.31 1.31 0 0 1 1.14-1.462c37.79-4.651 40.55-.178 41.45 1.292.52.841.88 2.241-.39 4.133-2.82 4.242-12.93 9.806-28.24 18.226-12.91 7.102-28.97 15.94-46.52 27.212-37.4 24.022-56.11 41.707-56.29 41.884-.25.242-.58.361-.91.361M1164.8 340.34c-.45 0-.89-.233-1.14-.65a1.32 1.32 0 0 1 .47-1.794c.51-.298 51.25-29.859 90.49-44.543 23.35-8.739 47.13-15.42 66.23-20.787 13.24-3.719 24.68-6.931 32.15-9.768 11.19-4.25 14.88-8.002 14.64-9.488-.11-.688-1.68-1.906-6.82-2.096-12.27-.455-31.13 1.137-31.32 1.154a1.311 1.311 0 1 1-.22-2.615c.19-.016 19.2-1.622 31.64-1.161 7.15.265 9.01 2.481 9.31 4.293.83 5.057-9.86 9.918-16.3 12.365-7.58 2.879-19.07 6.106-32.37 9.842-19.06 5.354-42.78 12.018-66.02 20.718-39.03 14.604-89.58 44.054-90.08 44.35-.21.122-.44.18-.66.18M1442.9 264.63c-6.55 0-15.66-.682-18.17-4.269-.6-.862-1.13-2.302-.26-4.266 4.33-9.734 61.03-16.929 81.57-16.289.72.022 1.29.628 1.27 1.352a1.34 1.34 0 0 1-1.35 1.27c-24.65-.754-76.06 7.917-79.09 14.732-.41.907-.2 1.384.01 1.697 2.17 3.099 14.84 3.45 22.31 2.943.75-.044 1.35.498 1.4 1.22.05.723-.5 1.349-1.22 1.398-1.08.073-3.52.212-6.47.212M1425.9 179.7c-.2 0-.4 0-.61-.002-7.63-.068-20.53-1.01-21.15-6.559-.63-5.573 11.56-9.332 18.89-11.076a1.312 1.312 0 0 1 .61 2.552c-12.74 3.032-17.08 6.582-16.9 8.229.19 1.636 5.29 4.112 18.57 4.23.19.002.39.003.58.003 25.24 0 52.09-14.735 52.37-14.885a1.31 1.31 0 0 1 1.78.511c.35.633.12 1.432-.51 1.783-1.13.626-27.73 15.214-53.63 15.214M1487.6 643.52c-17.88 3.044-36.05-.65-51.15-10.402-19.99-12.902-28.09-32.113-31.35-45.952-2.42-10.219-2.64-19.113-2.52-23.816h6.59c.06-1.351.16-2.748.31-4.184 6.46-.126 21.32-.12 39.43 1.75-1.61 3.345-2.47 7.005-2.47 10.711 0 14.029 11.88 25.449 26.47 25.449s26.46-11.42 26.46-25.449c0-.296-.01-.584-.02-.878 12.71 3.921 23.93 8.794 33.44 14.515v9.338l6.41 1.602c-3.44 23.698-23.42 42.515-51.6 47.316m9.15-71.893c0 12.586-10.7 22.825-23.84 22.825-13.15 0-23.84-10.239-23.84-22.825 0-3.62.9-7.202 2.61-10.408.46.052.91.098 1.36.15q.645.08 1.29.151c.61.078 1.21.15 1.81.229.44.052.86.106 1.29.158.6.079 1.2.164 1.8.243l1.26.176c.61.085 1.2.172 1.79.257.42.059.84.118 1.24.183.61.092 1.21.183 1.81.282.4.059.8.117 1.2.184.6.099 1.2.203 1.81.301.38.066.77.125 1.15.19.71.125 1.41.25 2.11.375.27.052.55.098.82.144.96.176 1.91.361 2.86.544.4.079.78.158 1.17.23.57.117 1.13.224 1.69.341.44.092.87.184 1.3.275.51.105 1.01.21 1.52.322.45.099.9.197 1.34.301q.72.156 1.44.321c.45.1.9.211 1.34.316.47.111.94.216 1.41.327l1.33.335c.46.112.92.223 1.37.341.45.112.9.23 1.34.348s.89.229 1.33.347c.44.119.88.243 1.32.361.44.125.88.242 1.31.367l1.3.374.9.255c.04.558.06 1.11.06 1.68m-15.66-58.892c53.01 16.62 52.15 62.966 51.75 69.517-9.66-5.653-20.98-10.454-33.73-14.318v-.007l-.83-.248c-8.34-2.487-17.31-4.579-26.81-6.264a303 303 0 0 0-20.36-2.905l-.84-.092v.007c-18.4-1.962-33.65-2.007-40.5-1.89 3.24-25.62 19.04-60.191 71.32-43.8m-141.8 103.89c-16.03 17.243-39.14 26.8-65.08 26.904-22.93.085-40.41-7.385-51.9-22.227-6.22-8.048-8.92-16.195-9.93-20.111l6.04-2.65c0-1.783.07-3.646.22-5.568 6.16-2.473 21.7-8.382 43.92-14.541-.05.695-.07 1.391-.07 2.092 0 14.916 11.66 27.048 26 27.048 14.33 0 26-12.132 26-27.048 0-4.644-1.13-9.157-3.28-13.163a538 538 0 0 1 40.92-5.766c-.06 4.729-.52 7.78-.52 7.78l8.26-3.234c-.1 18.193-7.44 36.349-20.58 50.484m-27.42-36.101c0 13.466-10.49 24.426-23.38 24.426s-23.38-10.96-23.38-24.426c0-.952.05-1.902.15-2.833.89-.237 1.78-.473 2.68-.715.76-.204 1.52-.407 2.29-.61 1.06-.276 2.13-.545 3.2-.819l2.25-.571c1.13-.283 2.27-.558 3.41-.833.69-.172 1.37-.342 2.06-.505 1.39-.329 2.77-.65 4.16-.972l1.35-.314c1.83-.414 3.67-.82 5.51-1.22.6-.131 1.22-.256 1.83-.387 1.23-.269 2.48-.531 3.72-.788.73-.15 1.46-.294 2.18-.438 1.13-.231 2.27-.46 3.39-.683.77-.15 1.54-.289 2.31-.44q1.44-.276 2.88-.544c2.22 3.811 3.39 8.172 3.39 12.672m-11.03-70.259c44.38-1.594 50.91 31.312 51.29 48.693a539 539 0 0 0-43.11 6.126l-.13.02a549 549 0 0 0-35.44 7.734c-3.26.826-6.5 1.671-9.73 2.55l-.82.231c-14.93 4.105-26.94 8.126-35.25 11.136a346 346 0 0 0-8.74 3.293c3.57-31.91 26.86-77.802 81.93-79.783m303.9 45.918c-.53-2.458-.99-4.918-1.38-7.372l-2.85 5.431-4.8-10.934-3.81 1.988-.98.518-41.31 21.554c-2.25-15.959-12.03-39.991-33.98-56.848a85 85 0 0 0-7.17-4.971 87 87 0 0 0-10.37-5.529 90 90 0 0 0-8.53-3.372 95 95 0 0 0-5.56-1.724 105 105 0 0 0-8.52-1.974c-1.1-.211-2.22-.408-3.35-.584a113.531 113.531 0 0 0-10.31-1.194 94 94 0 0 0-9.3-.249c-2.44.052-4.78.209-7.02.458-1.67.185-3.29.414-4.87.695-2.31.421-4.52.946-6.61 1.569a53.6 53.6 0 0 0-10.26 4.171 49 49 0 0 0-6.61 4.263c-13.29 10.167-19.67 25.993-22.1 42.063-10.88-12.036-26.93-1.778-26.93-1.778.37-9.294-4.21-28.164-25.44-38.908a61 61 0 0 0-4.81-2.164 66 66 0 0 0-4.38-1.58 77 77 0 0 0-5.64-1.582c-3.74-.891-7.8-1.58-12.21-2.02q-3.45-.352-7.2-.497l-1.2-.04a100 100 0 0 0-10.59.249c-4.04.301-8.01.839-11.92 1.606a101 101 0 0 0-13.42 3.589 101 101 0 0 0-12.14 5.057c-25.6 12.658-45.41 35.883-52.86 65.005-1.76 6.861-2.13 11.256-2.13 11.256l-48.7-31.667-3.75 15.329 49.87 32.08 4.17 6.019 4.17-1.828c1.12 4.262 3.92 12.37 10.22 20.542 8.22 10.664 24.19 23.343 53.63 23.343h.43c26.68-.111 50.46-9.964 66.99-27.738 13.84-14.888 21.47-34.1 21.28-53.298l3.32-1.299s1.07-13.425 14.81-14.966c13.73-1.549 13.12 14.501 13.12 14.501h6.2c-.12 4.847.11 13.826 2.58 24.333 3.38 14.338 11.75 34.237 32.5 47.638a74.25 74.25 0 0 0 40.32 11.865c4.21 0 8.46-.36 12.7-1.075 15.74-2.683 29.82-9.997 39.66-20.589 7.73-8.336 12.5-18.129 14.06-28.741l8.39 1.757-.23-10.186z"/><path fill-rule="nonzero" d="M1496.8 571.63c0 12.586-10.7 22.824-23.85 22.824-13.14 0-23.84-10.238-23.84-22.824 0-3.62.91-7.203 2.62-10.409.45.053.9.098 1.36.151.42.052.86.104 1.28.15.61.079 1.22.151 1.82.229l1.28.159c.61.078 1.2.163 1.8.242l1.27.177 1.79.256c.41.059.83.118 1.24.184q.9.135 1.8.281.6.087 1.2.185c.61.098 1.21.203 1.82.301.38.065.77.124 1.15.19l2.11.374c.27.053.54.098.81.144.97.177 1.92.362 2.87.545q.585.119 1.17.229c.56.118 1.12.222 1.68.342.44.091.87.183 1.31.275.5.104 1.01.209 1.51.322q.675.145 1.35.301c.48.105.95.209 1.43.32.46.1.9.211 1.35.316.46.111.93.216 1.4.327l1.34.336c.45.111.91.222 1.36.34.46.113.9.231 1.35.348.44.118.88.229 1.33.347.44.12.87.244 1.31.362.44.124.89.242 1.32.366l1.3.375c.29.085.59.17.89.255.05.558.07 1.109.07 1.68M1311.9 580.51c0 13.466-10.49 24.426-23.39 24.426-12.88 0-23.37-10.96-23.37-24.426 0-.952.05-1.902.15-2.833q1.335-.354 2.67-.715c.77-.204 1.53-.407 2.3-.61 1.06-.276 2.13-.545 3.2-.82l2.24-.57c1.14-.283 2.28-.558 3.42-.835.69-.17 1.37-.34 2.06-.503 1.38-.329 2.77-.65 4.16-.972l1.35-.314c1.83-.414 3.67-.82 5.51-1.221.6-.13 1.21-.255 1.82-.387 1.24-.269 2.49-.53 3.73-.787.73-.151 1.45-.295 2.18-.438 1.13-.231 2.27-.46 3.39-.683.77-.152 1.54-.289 2.31-.44q1.44-.276 2.88-.544c2.22 3.811 3.39 8.172 3.39 12.672"/><path fill="#f5fffe" fill-rule="nonzero" d="M1359.9 566.13c-.09 18.196-7.44 36.35-20.57 50.485-16.04 17.243-39.15 26.799-65.09 26.906-22.93.085-40.4-7.386-51.89-22.229-6.23-8.049-8.92-16.195-9.93-20.109l6.04-2.65c0-1.785.07-3.648.22-5.569 6.16-2.473 21.69-8.383 43.92-14.542-.05.695-.08 1.39-.08 2.092 0 14.915 11.66 27.05 26 27.05s26.01-12.135 26.01-27.05c0-4.642-1.13-9.155-3.28-13.163a537 537 0 0 1 40.92-5.765c-.06 4.729-.53 7.778-.53 7.778z"/><path fill="#4b4083" fill-rule="nonzero" d="M1352.2 558.96a539 539 0 0 0-43.11 6.126l-.12.019a550 550 0 0 0-45.17 10.285l-.82.229c-14.93 4.106-26.95 8.126-35.25 11.138a312 312 0 0 0-8.74 3.293c3.57-31.91 26.85-77.803 81.92-79.784 44.39-1.594 50.92 31.313 51.29 48.694"/><path fill="#f5fffe" fill-rule="nonzero" d="M1539.2 596.2c-3.43 23.696-23.4 42.514-51.6 47.315-17.87 3.043-36.04-.649-51.14-10.402-19.99-12.901-28.09-32.112-31.35-45.953-2.42-10.219-2.64-19.113-2.52-23.814h6.59c.07-1.351.16-2.748.31-4.186 6.47-.124 21.32-.118 39.43 1.752-1.61 3.345-2.47 7.005-2.47 10.711 0 14.029 11.88 25.449 26.47 25.449s26.47-11.42 26.47-25.449c0-.296-.02-.584-.03-.88 12.71 3.923 23.93 8.796 33.44 14.516v9.339z"/><path fill="#4b4083" fill-rule="nonzero" d="M1532.9 582.26c-9.66-5.655-20.98-10.457-33.74-14.319v-.006l-.83-.25c-8.34-2.485-17.31-4.577-26.8-6.264a306 306 0 0 0-20.36-2.905l-.85-.092v.007c-18.4-1.962-33.65-2.007-40.5-1.89 3.25-25.618 19.04-60.191 71.32-43.8 53.01 16.62 52.15 62.966 51.76 69.519"/><path fill-rule="nonzero" d="M1620.9 745.97c-5.61 75.114-60.72 128.52-155.12 150.36-70.76 14.135-138.19 12.396-195.01-5.017-47.9-14.686-86.97-40.017-110.05-71.374-.3-.374-30.09-37.99-28.88-83.095v-.079c-.13-4.25.04-7.647.51-10.284.27 1.809 1.29 4.223 3.47 7.089-.73 2.362-2.5 9.971 1.1 20.891 3.88 11.78 15.09 29.875 46.39 49.186 20.59 12.69 40.52 22.41 60.9 29.704 1.7 19.139 16.12 36.934 40.75 50.184 24.84 13.359 57.51 20.719 91.99 20.719 34.72 0 67.55-7.451 92.45-20.976 24.68-13.405 38.95-31.352 40.34-50.635 19.49-5.607 35.06-12.082 46.29-19.244 21.99-14.063 38.27-26.971 48.39-38.369 11.36-12.81 15.35-24.197 11.87-33.858 1.71-2.125 2.81-4.315 3.02-6.519.08-.828.03-1.627-.14-2.401 1.59 3.306 2.18 7.898 1.74 13.714m-483.01-9.909c4.09 4.459 10.78 9.772 21.26 15.537l-.79 29.856c-11.23-10.835-16.48-20.424-18.88-27.573-2.8-8.342-2.23-14.66-1.59-17.82m23.84 16.935c.66.34 1.32.689 2 1.036 9.33 4.742 22.55 10.336 40.89 16.009l-2.59 41.447a368 368 0 0 1-17.35-10.069c-9.82-6.052-17.59-11.962-23.77-17.57zm95.8 30.125-2.86 50.989c-.43-.138-.86-.269-1.3-.406-.56-.185-1.13-.368-1.7-.558-1.94-.636-3.86-1.292-5.77-1.968l-.03-.006-.01-.007c-13.86-4.912-27.5-10.96-41.28-18.306l2.63-42.029c13.81 4.171 30.42 8.369 50.32 12.291m42.56 7.149c2.53.361 5.11.695 7.72 1.011V845.9q-.39-.052-.78-.1c-2.2-.301-4.39-.623-6.56-.964-.32-.045-.65-.104-.97-.157q-2.775-.443-5.52-.925c-.6-.112-1.2-.216-1.8-.328-1.73-.315-3.46-.643-5.18-.991-.42-.078-.83-.157-1.24-.242q-3.15-.64-6.24-1.338c-.47-.105-.92-.216-1.39-.321-1.63-.374-3.25-.767-4.87-1.168-.6-.144-1.19-.294-1.78-.44-1.75-.451-3.51-.911-5.25-1.39q-.42-.106-.84-.223c-1.99-.551-3.97-1.128-5.94-1.719-.54-.157-1.07-.321-1.6-.484q-.3-.1-.6-.191l2.88-51.291c12.1 2.336 25.38 4.572 39.96 6.638m10.34 1.318c30.36 3.45 66.13 4.015 104.25 1.6 7.35-.464 14.74-1.042 22.14-1.717 1.03 6.224 5.68 35.575 3.94 52.393-7.85 1.035-12.7 1.508-12.84 1.521-.14.02-.28.033-.41.046-1.88.209-3.75.406-5.6.597l-1.57.157a717 717 0 0 1-6.69.643c-1.79.164-3.56.314-5.32.466l-1.18.098c-1.96.157-3.9.308-5.83.445-.32.02-.63.046-.95.066-1.81.126-3.62.25-5.41.361l-.68.039c-1.95.118-3.88.223-5.8.321-.33.021-.67.034-1 .054-3.88.19-7.71.334-11.5.445-.35.007-.69.02-1.04.026-1.88.046-3.75.092-5.62.118h-.22c-1.78.026-3.55.047-5.32.054h-1.03c-.78.006-1.55 0-2.33-.007-1.85-.008-3.69-.021-5.52-.047-.74-.013-1.47-.02-2.2-.039-2.17-.04-4.33-.092-6.46-.164-.25-.013-.49-.013-.73-.026-2.38-.085-4.72-.19-7.07-.314-.63-.033-1.26-.072-1.89-.106-1.8-.105-3.59-.216-5.36-.341-.63-.046-1.25-.085-1.88-.131-2.3-.176-4.61-.361-6.88-.577-.09-.007-.18-.02-.27-.026-2.18-.203-4.34-.434-6.49-.669-.61-.072-1.23-.144-1.83-.216-1.15-.133-2.28-.277-3.41-.421zm183.88-7.516c1.14 5.483 5.45 28.944.7 49.769-19.69 4.814-38.82 7.896-51.58 9.655 1.61-17.263-2.88-45.618-4-52.282 18.61-1.77 37.16-4.178 54.88-7.142m12.72 49.342c-1.72 17.999-15.45 34.828-38.9 47.566-24.52 13.321-56.91 20.654-91.2 20.654-34.05 0-66.28-7.248-90.74-20.412-23.3-12.533-37.16-29.12-39.27-46.901 1.43.49 2.86.976 4.3 1.449l.35.118c1.97.643 3.94 1.259 5.93 1.863.54.17 1.08.327 1.63.491q2.34.7 4.71 1.357c.5.144 1 .29 1.51.427 2.02.552 4.04 1.09 6.09 1.607.29.072.6.144.89.217 1.77.439 3.56.866 5.35 1.278.57.132 1.15.263 1.73.387 1.76.395 3.52.774 5.3 1.142.35.072.7.151 1.05.223 2.12.427 4.24.832 6.39 1.22l1.47.255c1.71.309 3.44.597 5.18.872.57.093 1.14.191 1.72.277 4.37.682 8.8 1.279 13.3 1.796.59.073 1.19.139 1.79.204 1.79.203 3.6.386 5.42.564.52.046 1.04.105 1.56.151 2.29.209 4.58.399 6.9.577l1.2.079c1.94.137 3.91.262 5.88.373.66.039 1.31.072 1.97.113 2.04.104 4.1.196 6.17.275.33.006.68.026 1.02.039 2.38.085 4.8.144 7.22.19.62.013 1.24.019 1.85.026 1.91.026 3.83.046 5.76.052.41 0 .81.007 1.22.007.45 0 .91 0 1.37-.007h1.35c1.74-.013 3.49-.026 5.25-.059q.36-.001.72-.013c1.58-.026 3.18-.065 4.78-.105l1.4-.039c1.76-.052 3.54-.111 5.32-.176.36-.02.73-.033 1.09-.046q2.325-.099 4.68-.218.66-.027 1.32-.065c1.81-.092 3.63-.19 5.47-.301.42-.026.85-.059 1.29-.085 1.6-.098 3.22-.211 4.84-.323l1.11-.078c1.88-.137 3.76-.281 5.66-.438.46-.035.93-.074 1.39-.113 1.74-.144 3.49-.301 5.26-.458.24-.027.48-.046.72-.066 1.95-.185 3.92-.374 5.89-.571.48-.052.96-.098 1.44-.15 1.99-.205 3.99-.414 6-.637.02 0 .04-.006.05-.006.07-.007 1.36-.133 3.62-.388l.04-.006c.41-.04.83-.092 1.3-.144.02-.007.05-.007.08-.013q.315-.031.63-.072c.05-.007.11-.013.17-.02.2-.026.4-.046.61-.072l.16-.02c.22-.027.46-.054.7-.086a1 1 0 0 0 .1-.013c.24-.027.48-.059.73-.085.08-.013.16-.02.24-.033.22-.026.45-.052.68-.085.07-.007.15-.02.24-.026.23-.033.46-.059.7-.092.09-.013.18-.026.28-.033.23-.032.47-.065.71-.091.1-.013.2-.026.29-.04l.76-.098.27-.041.79-.098q.165-.027.33-.046c.26-.032.52-.072.78-.104.11-.013.22-.033.33-.046.27-.039.54-.072.81-.111q.18-.021.36-.053c.27-.032.54-.072.8-.111.15-.019.29-.039.43-.059.26-.034.52-.073.78-.106.14-.026.3-.046.45-.066l.8-.117c.16-.02.32-.046.48-.066.26-.039.51-.078.78-.111l.53-.078.79-.118c.17-.026.35-.054.53-.08.27-.04.55-.085.83-.125l.51-.078c.28-.039.56-.085.85-.131.19-.026.37-.052.56-.085.28-.039.55-.085.83-.124.19-.033.4-.066.59-.1.28-.04.55-.085.83-.131.2-.026.41-.059.61-.092l.85-.137q.315-.048.63-.105l.85-.137c.21-.033.43-.066.64-.107q.435-.066.87-.144c.21-.032.43-.072.65-.104.29-.053.59-.098.88-.151.22-.032.44-.072.66-.111.29-.052.59-.098.9-.152l.67-.118c.29-.052.58-.098.87-.15.25-.046.5-.085.75-.131.27-.053.55-.098.83-.151.26-.046.5-.085.75-.132.31-.053.61-.111.91-.164.23-.046.47-.085.71-.131.3-.052.61-.111.92-.17.24-.039.49-.085.73-.131.3-.059.6-.113.9-.171.26-.046.52-.099.77-.144.3-.053.59-.112.89-.17.27-.046.54-.099.8-.151.29-.052.57-.111.87-.172l.83-.157c.29-.059.58-.118.88-.176.27-.053.54-.105.82-.164l.89-.178c.28-.053.55-.112.84-.17l.88-.177.85-.177c.29-.059.58-.118.88-.185.29-.059.58-.117.88-.183l.84-.177c.3-.065.61-.13.91-.196.29-.059.57-.119.86-.185.3-.065.61-.131.92-.196.27-.065.55-.124.83-.19q.465-.096.93-.204c.29-.059.57-.125.86-.19.31-.072.62-.137.93-.209.27-.066.55-.125.83-.19.32-.074.64-.152.96-.224.27-.059.53-.125.79-.183.34-.079.68-.157 1.01-.236.27-.065.54-.132.8-.191l.99-.236c.27-.065.56-.137.83-.203.33-.078.66-.157.98-.243.25-.059.5-.125.75-.184.36-.085.71-.176 1.06-.261.25-.059.49-.125.73-.185l1.08-.275.71-.183c.37-.092.73-.19 1.1-.283.21-.059.43-.112.63-.17.4-.105.79-.203 1.18-.308.16-.046.31-.085.47-.132.45-.118.89-.236 1.34-.36.02-.007.04-.007.06-.013.58-.157 1.15-.323 1.73-.48m20.77-55.815a457 457 0 0 0 21.09-5.209c.73 5.294 2.96 24.387-.11 42.221-10.56 5.79-24.19 11.084-40.67 15.774-3 .852-6.03 1.665-9.05 2.439-.4.106-.8.211-1.21.309 4.37-20.852.23-43.774-.95-49.508 10.68-1.822 21.04-3.836 30.9-6.026m62.26-19.461c.43 4.559 1.44 16.857 1 26.348-9.39 8.264-21.56 17.171-36.47 26.701-.93.597-1.9 1.179-2.88 1.763 2.67-17.931.41-36.493-.27-41.261 14.7-4.126 27.77-8.704 38.62-13.551m2.73-1.247c7.56-3.535 16.13-8.264 21.44-13.471 2.88 10.54-3.98 23.461-20.46 38.632.21-9.943-.86-21.718-1.18-25.069.06-.026.13-.059.2-.092m25.83-29.829c-4.01-3.837-8.88-3.306-9.08-3.28l-4.87.578 4.51 1.927c5.27 2.251 7.78 4.986 7.5 8.126-.98 10.522-32.02 27.857-89.45 40.627-74.74 16.62-163.74 21.578-226.77 12.632-74.32-10.546-114.72-25.383-135.53-35.981-25.58-13.02-30.37-23.724-30.03-26.446.82-6.566 8.41-6.408 10.11-6.296.12.013.24.019.36.032l.26-2.611c-.23-.026-.48-.045-.74-.065-4.9-.407-8.88-.401-11.74 2.289-3.01 2.846-4.23 8.468-3.95 18.221-1.22 46.076 29.15 84.386 29.42 84.728 23.39 31.764 62.94 57.437 111.37 72.28 31.69 9.72 66.64 14.593 103.62 14.593 29.81 0 60.93-3.168 92.71-9.517 61.94-14.338 106.62-41.401 132.76-80.433 21.41-31.967 23.69-62.322 24.43-72.298.67-8.934-.97-15.368-4.89-19.106"/><path fill="#bd3712" fill-rule="nonzero" d="M1507 833.42c-1.72 17.997-15.45 34.828-38.9 47.566-24.53 13.32-56.91 20.654-91.2 20.654-34.05 0-66.28-7.249-90.74-20.412-23.3-12.534-37.16-29.121-39.27-46.904 1.42.493 2.86.979 4.3 1.451l.35.118c1.97.643 3.94 1.26 5.93 1.862.54.172 1.08.329 1.63.492q2.34.7 4.71 1.358c.5.144 1 .289 1.5.427 2.03.551 4.05 1.088 6.1 1.606.29.072.6.144.89.216 1.77.44 3.56.867 5.35 1.279.57.133 1.15.264 1.73.388 1.75.394 3.52.774 5.3 1.142.34.072.7.15 1.05.222 2.11.427 4.24.833 6.38 1.221.5.085.99.17 1.48.255 1.71.309 3.44.597 5.18.872.57.093 1.14.191 1.72.276 4.37.682 8.8 1.279 13.3 1.796.59.074 1.19.139 1.79.205 1.79.203 3.6.386 5.42.564.52.046 1.04.105 1.56.151q3.42.312 6.9.577l1.2.078c1.94.138 3.91.262 5.88.373.65.04 1.31.072 1.97.112 2.04.106 4.1.198 6.17.276.33.007.67.026 1.02.039 2.38.085 4.8.144 7.22.19.62.013 1.24.02 1.85.026q2.865.04 5.76.053c.41 0 .81.006 1.22.006.45 0 .91 0 1.37-.006h1.35c1.74-.013 3.49-.027 5.25-.059q.36-.002.72-.013c1.58-.026 3.18-.066 4.78-.105l1.39-.039c1.77-.053 3.55-.111 5.33-.177.36-.02.73-.033 1.09-.046q2.325-.099 4.68-.217.66-.028 1.32-.066a502 502 0 0 0 5.46-.301c.43-.026.86-.059 1.3-.085 1.6-.098 3.22-.211 4.84-.322l1.11-.079c1.88-.137 3.76-.281 5.65-.44.47-.032.94-.072 1.4-.111 1.74-.144 3.49-.301 5.26-.458q.36-.037.72-.067c1.95-.183 3.92-.373 5.89-.569.48-.053.95-.098 1.44-.152q2.985-.303 6-.635c.02 0 .04-.008.05-.008.07-.007 1.36-.131 3.62-.386l.04-.007c.41-.039.83-.091 1.3-.144.02-.006.05-.006.08-.013.2-.019.42-.046.63-.072l.17-.019c.2-.027.4-.048.61-.074l.16-.02c.22-.026.46-.052.69-.085.04 0 .08-.006.11-.013.24-.026.48-.059.73-.085.08-.013.16-.019.24-.033.22-.026.45-.052.68-.085.07-.006.15-.019.24-.026.23-.033.46-.059.7-.091.09-.014.18-.027.28-.033.23-.033.47-.066.71-.092l.29-.039c.25-.033.5-.067.76-.1.08-.013.18-.026.27-.039.25-.033.52-.065.79-.098q.165-.028.33-.046c.26-.033.52-.072.78-.105.11-.013.22-.032.33-.045.27-.04.54-.072.81-.112q.18-.02.36-.052c.27-.033.53-.072.8-.111l.43-.061c.26-.033.52-.072.78-.105.14-.026.3-.045.45-.065l.8-.118c.16-.019.32-.046.47-.065.27-.039.52-.079.79-.111.17-.027.36-.053.53-.079l.79-.119c.17-.027.35-.053.53-.079.27-.039.55-.085.83-.124l.51-.079c.28-.039.56-.085.85-.131.19-.026.37-.052.56-.085.27-.039.55-.085.83-.124l.59-.1c.28-.039.55-.085.83-.131.2-.026.41-.058.61-.091.28-.046.56-.092.85-.138q.315-.047.63-.104l.85-.138c.21-.034.42-.067.64-.106q.435-.068.87-.144c.21-.033.43-.072.65-.105.29-.052.59-.098.87-.15.23-.033.44-.072.67-.111.29-.053.59-.1.9-.153l.67-.117c.29-.053.58-.098.87-.151.25-.046.5-.085.75-.131.27-.052.55-.098.83-.15.25-.046.5-.087.75-.133.3-.052.61-.111.91-.163.23-.046.47-.085.71-.131.3-.052.61-.111.92-.17.24-.04.49-.085.73-.131.3-.061.6-.113.9-.172.26-.046.52-.098.77-.144.3-.052.59-.111.89-.17.27-.046.53-.098.8-.15.29-.053.57-.113.87-.172l.83-.157c.28-.059.58-.118.87-.177.28-.052.55-.105.82-.163l.9-.179c.28-.052.55-.111.84-.17l.88-.177.85-.176c.29-.059.58-.12.88-.185q.435-.087.87-.183l.85-.177c.3-.065.6-.131.91-.196.28-.061.57-.12.86-.185.3-.066.61-.131.91-.196.28-.066.56-.125.84-.19q.465-.098.93-.205c.29-.059.57-.124.86-.189.31-.072.62-.138.93-.21.27-.065.55-.124.83-.19.32-.073.64-.152.96-.224.27-.059.53-.124.79-.183.34-.078.68-.157 1.01-.235.27-.067.53-.133.8-.192l.99-.235c.27-.066.55-.138.83-.203.33-.079.66-.159.98-.244.25-.059.5-.124.75-.183.36-.085.71-.177 1.06-.262.25-.059.49-.126.73-.185l1.08-.275c.23-.058.48-.124.71-.183.37-.091.73-.191 1.1-.283.21-.059.43-.111.63-.17l1.18-.307.47-.133c.45-.118.89-.235 1.34-.36.02-.006.04-.006.06-.013.57-.157 1.15-.322 1.73-.479"/><path fill-rule="nonzero" d="M1620.9 745.97c-5.61 75.114-60.72 128.52-155.12 150.36-70.76 14.135-138.19 12.396-195.01-5.019-47.9-14.684-86.97-40.015-110.05-71.373-.3-.375-30.09-37.99-28.88-83.096v-.079c-.13-4.249.04-7.647.51-10.284.27 1.811 1.29 4.224 3.47 7.091-.73 2.361-2.5 9.969 1.1 20.89 3.88 11.779 15.09 29.876 46.39 49.185 20.59 12.692 40.52 22.412 60.9 29.706 1.7 19.139 16.12 36.934 40.75 50.182 24.84 13.361 57.51 20.719 91.99 20.719 34.72 0 67.55-7.449 92.45-20.974 24.68-13.407 38.95-31.352 40.34-50.635 19.49-5.609 35.06-12.082 46.29-19.245 21.99-14.062 38.27-26.97 48.39-38.37 11.36-12.808 15.35-24.195 11.87-33.856 1.71-2.125 2.81-4.317 3.02-6.52.08-.827.03-1.626-.14-2.4 1.59 3.306 2.18 7.896 1.74 13.714"/><path fill="#fff" fill-rule="nonzero" d="M1593.8 782.06c.21-9.942-.86-21.715-1.18-25.067.06-.026.13-.06.2-.093 7.56-3.535 16.13-8.264 21.44-13.471 2.88 10.54-3.98 23.461-20.46 38.631M1591 784.49c-9.39 8.264-21.55 17.171-36.47 26.701-.92.597-1.89 1.181-2.88 1.765 2.67-17.933.41-36.495-.27-41.263 14.7-4.126 27.78-8.704 38.62-13.551.43 4.559 1.45 16.857 1 26.348M1548.8 814.61c-10.56 5.791-24.19 11.084-40.67 15.774-3 .852-6.03 1.665-9.05 2.439-.4.105-.81.211-1.22.309 4.38-20.851.23-43.774-.95-49.507 10.69-1.823 21.05-3.836 30.91-6.027a455 455 0 0 0 21.09-5.208c.73 5.293 2.96 24.386-.11 42.22"/><path fill="#fff" fill-rule="nonzero" d="M1495 833.85c-19.69 4.814-38.82 7.896-51.58 9.655 1.6-17.265-2.88-45.618-4-52.282 18.6-1.77 37.16-4.178 54.88-7.142 1.14 5.483 5.44 28.944.7 49.769M1440.8 843.87c-7.85 1.035-12.7 1.508-12.85 1.521-.13.02-.27.033-.4.046-1.89.209-3.75.407-5.6.597l-1.57.157c-1.96.196-3.91.388-5.84.564l-.85.079c-1.79.163-3.56.314-5.32.466l-1.18.098c-1.96.157-3.9.308-5.83.447-.32.019-.63.045-.95.065-1.81.124-3.62.249-5.41.36l-.68.039c-1.95.118-3.88.224-5.8.323-.33.019-.67.032-1 .052-3.89.19-7.72.334-11.5.445-.35.006-.69.019-1.04.026-1.88.046-3.75.093-5.62.119h-.22c-1.79.027-3.56.046-5.32.053h-1.03c-.78.006-1.55 0-2.33-.007a480 480 0 0 1-5.52-.046c-.74-.013-1.48-.019-2.2-.039-2.18-.041-4.33-.093-6.46-.165-.25-.013-.49-.013-.73-.026-2.38-.085-4.72-.19-7.07-.314-.63-.033-1.26-.072-1.89-.105-1.8-.106-3.59-.218-5.36-.342-.63-.046-1.25-.085-1.88-.131a368 368 0 0 1-6.88-.577c-.09-.007-.18-.02-.27-.026-2.18-.203-4.34-.434-6.49-.669l-1.84-.216c-1.14-.131-2.27-.277-3.4-.421v-54.649c30.36 3.45 66.13 4.014 104.25 1.602 7.35-.467 14.74-1.044 22.13-1.72 1.04 6.225 5.69 35.576 3.95 52.394"/><path fill="#fccb3b" fill-rule="nonzero" d="M1307.8 791.27v54.623c-.25-.033-.51-.065-.77-.098-2.2-.301-4.4-.623-6.57-.964-.32-.045-.64-.106-.97-.158-1.85-.295-3.68-.602-5.51-.925-.61-.111-1.2-.215-1.8-.327-1.74-.315-3.46-.643-5.18-.991-.42-.079-.83-.157-1.25-.242-2.09-.427-4.17-.874-6.23-1.338-.47-.105-.92-.218-1.39-.322a279 279 0 0 1-4.87-1.167c-.6-.145-1.19-.296-1.78-.44-1.76-.453-3.51-.911-5.25-1.39q-.42-.106-.84-.223c-2-.551-3.98-1.128-5.95-1.719-.53-.157-1.06-.321-1.6-.486-.19-.065-.39-.131-.59-.19l2.88-51.29c12.1 2.334 25.37 4.572 39.95 6.638 2.54.36 5.11.695 7.72 1.009"/><path fill="#fff" fill-rule="nonzero" d="m1257.5 783.12-2.86 50.99c-.44-.138-.87-.269-1.3-.408q-.855-.273-1.71-.556a279 279 0 0 1-5.76-1.968l-.04-.006-.01-.007c-13.86-4.914-27.5-10.96-41.28-18.306l2.63-42.031c13.81 4.172 30.43 8.371 50.33 12.292M1204.6 770.03l-2.59 41.447a367 367 0 0 1-17.36-10.069c-9.81-6.054-17.59-11.962-23.76-17.572l.82-30.853c.65.342 1.32.689 2 1.038 9.33 4.742 22.54 10.336 40.89 16.009M1159.2 751.6l-.8 29.855c-11.22-10.836-16.47-20.425-18.87-27.573-2.8-8.343-2.23-14.659-1.59-17.821 4.09 4.459 10.78 9.772 21.26 15.539"/><path fill-rule="nonzero" d="M1374.9 858.81c-19.88 0-39.04-5.225-54.01-15.11-16.92-11.165-27.96-27.729-31.94-47.9-9.91-50.252 9.82-103.66 10.02-104.2v-.002c7.9-20.938 17.96-39.434 29.08-53.489 11.98-15.145 24.71-24.78 37.82-28.634 14.25-4.189 28.24-1.29 41.59 8.613 18.52 13.728 32.67 34.893 42.08 62.907 6.71 20.006 11.04 43.637 12.85 70.24 1.49 21.872-3.35 45.268-13.28 64.186-8.14 15.497-23.5 35.171-50.49 40.895a114.5 114.5 0 0 1-23.72 2.488"/><path fill="#fb5e17" fill-rule="nonzero" d="M1301.4 692.53c-.24.647-19.64 53.314-9.89 102.76 3.84 19.468 14.49 35.45 30.8 46.219 20.32 13.417 48.64 17.994 75.74 12.245 43.98-9.327 64.61-59.687 61.7-102.34-4.35-63.785-22.47-107.93-53.87-131.22-12.66-9.387-25.88-12.146-39.3-8.202-24.5 7.205-48.87 37.309-65.18 80.531"/><path fill="#fefefe" fill-rule="nonzero" d="M1825.4 1374.5s-11.11-6.95-9.26-10.19 25.23-2.08 28.24 5.09c3.01 7.18-3.7 11.81-18.98 5.1m-42.13 58.02c-.93 6.49-15.13 12.66-15.13 12.66s-11.96 2.93-22.84 2.01c-10.88-.93-16.9-6.02-33.1-18.52s-57.64-47.23-65.51-52.55c-7.87-5.33-14.12-8.34-20.37-10.88-6.25-2.55-12.27-9.49-5.33-11.35 6.95-1.85 7.87 0 22.46 11.35 14.58 11.34 49.07 35.18 66.67 49.07 17.59 13.89 25.62 18.83 36.11 19.76 10.5.92 37.97-8.03 37.04-1.55m-743.59-346.44c-.84.03-1.68-.14-2.47-.43-5.5-2.04-43.868-16.13-75.883-24.14-34.573-8.64-48.148-16.66-48.148-21.6s18.516-22.84 17.282-20.99-12.659 17.59 19.139 25c31.792 7.41 92.28 31.79 93.21 37.66.58 3.66-1.49 4.43-3.13 4.5m857.07 257.85c-27.78-27.09-123.62-22.92-181.27-29.86-57.64-6.95-68.05-9.03-116.67-26.39-48.61-17.37-133.33-68.06-232.64-121.54-99.32-53.47-220.23-109.57-268.37-140.74-48.15-31.177-71.61-66.058-92.91-94.76-21.296-28.702-34.257-38.582-64.815-31.482-30.559 7.097-49.081 28.705-56.794 39.506-7.72 10.804-10.494 12.964-28.401 17.595-17.899 4.629-58.027 42.595-54.322 80.561 6.789 47.84 73.769 50.55 73.769 50.55s48.765-1.79 168.21 39.88c119.45 41.67 253.71 110.19 302.33 134.27 48.61 24.07 212.51 108.8 218.53 108.8 6.01 0 23.61 5.56 44.44 21.76 20.84 16.2 95.15 75.23 95.15 75.23 28.1 19.32 51.81 22.34 61.61 22.67 2.96.1 5.92-.28 8.77-1.1 50.46-14.49 61.91-62.91 72.01-60.15 4.06 1.11 8.35 1.17 12.54.72 59.06-6.23 65.13-59.88 38.83-85.53"/><path fill="#fefefe" fill-rule="nonzero" d="M950.49 1426.9c-2.033-.29-4.073-.48-6.113-.68-2.931-.28-8.474-2.47-10.481-14.73-2.781-16.98-11.268-43.21-7.72-42.75s16.666 32.72 25.777 38.89c9.104 6.17 16.817 4.01 27.928.15 11.117-3.85 14.508-5.55 14.974-1.85.44 3.54-13.669 25.32-44.364 20.97m-64.474-84.81c-3.443 1.11-7.208.99-10.455-.59-2.702-1.31-4.939-3.47-3.089-6.87 3.706-6.79 19.446-11.11 24.077-8.95 4.211 1.96 3.569 11.86-10.533 16.41m439.72-76.94c-20.71-10.32-49.45-24.63-82.79-40.51-10.04 4.4-18.48 8.08-24.94 10.91-70.84 31.02-120.83 51.85-181.95 56.49-61.109 4.63-144.91-3.24-181.95 0s-61.287 34.72-53.79 59.26c7.49 24.54 30.177 38.42 50.549 41.67 20.373 3.24 23.147 25.92 28.702 33.79s19.447 45.84 72.693 39.36c53.237-6.48 98.147-44.91 119.45-60.19 21.3-15.27 48.61-29.17 93.06-47.69 24.27-10.11 105.55-45.62 186.34-80.46-4.3-2.15-8.14-4.08-11.47-5.72-4.06-2.01-8.71-4.32-13.9-6.91m499.56-200.89c-.3 12.65-14.2 17.9-31.48 20.98-17.29 3.09-25.62 3.09-49.39 11.73-23.76 8.65-36.11 11.42-41.05 5.87-5.55-10.19 84.26-25.31 99.7-31.18 13.73-5.21 15-26.56 15.11-31.21.02-.8.38-1.6 1.05-2.04.58-.39 1.28-.39 1.74 1.15.93 3.09 4.63 12.04 4.32 24.7m61.73-78.402s-19.13-7.719-24.69-26.544c-5.55-18.83-17.29-31.483-46.3-39.203-29.01-7.714-41.67-8.638-61.11 19.447-19.45 28.085-47.1 64.512-102.64 97.842-33.45 20.08-158.36 76.57-267.95 125.11 23.66 12.84 46.23 25.34 68.17 37.48 12.2 6.75 24.07 13.33 35.53 19.62 11.86-4.89 22.18-9.06 30.45-12.29 73.62-28.71 168.86-59.27 230.04-71.77 61.18-12.49 89.89-18.51 124.61-19.44 34.72-.92 68.98-17.13 70.84-54.17 1.85-37.04-37.04-67.903-56.95-76.082"/><defs><radialGradient id="a" cx="50%" cy="50%" r="50%"><stop offset="0%" stop-color="#fff" stop-opacity=".9"/><stop offset="30%" stop-color="#fff" stop-opacity=".5"/><stop offset="60%" stop-color="#fffbe6" stop-opacity=".2"/><stop offset="100%" stop-color="#fffbe6" stop-opacity="0"/></radialGradient><radialGradient id="b" cx="50%" cy="50%" r="50%"><stop offset="0%" stop-color="#fff"/><stop offset="60%" stop-color="#fff" stop-opacity=".6"/><stop offset="100%" stop-color="#fff" stop-opacity="0"/></radialGradient></defs><g transform="translate(1300 832)"><circle r="100" fill="url(#a)"/><path fill="#fff" d="m0-80 5 70L80 0 5 10 0 80l-5-70-75-10 75-10Z" opacity=".85"/><path fill="#fff" d="M31.113-31.113 8.485-2.828l22.628 33.94L-2.828 8.486l-28.285 22.628L-8.485 2.828l-22.628-33.94L2.828-8.486Z" opacity=".6"/><circle r="20" fill="url(#b)"/><circle r="8" fill="#fff"/></g></svg>